<?xml version="1.0" encoding="utf-8"?>
<!-- Generator: Adobe Illustrator 16.0.0, SVG Export Plug-In . SVG Version: 6.00 Build 0)  -->
<!DOCTYPE svg PUBLIC "-//W3C//DTD SVG 1.1//EN" "http://www.w3.org/Graphics/SVG/1.1/DTD/svg11.dtd">
<svg version="1.1" id="Back" xmlns="http://www.w3.org/2000/svg" xmlns:xlink="http://www.w3.org/1999/xlink" x="0px" y="0px"
	 width="448.439px" height="105.193px" viewBox="0 0 448.439 105.193" enable-background="new 0 0 448.439 105.193"
	 xml:space="preserve">
<g>
	<g id="Layer_2">
		<path fill="#FFFFFF" d="M171.515,62.456c-6.674,25.045-23.266,21.967-34.221,29.783c-17.215,12.256-39.117,16.35-62.855,9.975
			c-33.264-8.93-55.879-41.877-53.556-75.047l17.515-0.596c45.246,63.965,37.488,21.412,60.102-7.037c0,0,8.824-1.541,9.391-1.648
			c3.008-0.518,13.893,53.77,18.877,50.729C143.636,58.298,168.683,53.284,171.515,62.456z"/>
	</g>
	<g id="Layer_3">
		<path fill="#FFFFFF" d="M0.241,24.417c0,0,93.321-4.07,162.241-24.417l1.641,3.427C117.077,21.983,35.864,28.101,0.002,28.212
			C-0.028,28.327,0.241,24.417,0.241,24.417z"/>
	</g>
</g>
<g>
	<path fill="#FFFFFF" d="M218.581,22.354h13.679v38.338c0,17.279-8.279,23.31-21.599,23.31c-3.15,0-7.29-0.54-9.989-1.44
		l1.53-11.069c1.89,0.63,4.32,1.08,7.02,1.08c5.76,0,9.36-2.61,9.36-12.06V22.354z"/>
	<path fill="#FFFFFF" d="M244.141,68.882c3.69,1.891,9.36,3.78,15.209,3.78c6.3,0,9.63-2.61,9.63-6.569
		c0-3.78-2.881-5.94-10.17-8.55c-10.08-3.51-16.649-9.09-16.649-17.909c0-10.35,8.64-18.27,22.949-18.27
		c6.84,0,11.88,1.439,15.479,3.06l-3.061,11.069c-2.43-1.17-6.749-2.879-12.689-2.879c-5.939,0-8.819,2.699-8.819,5.85
		c0,3.869,3.42,5.579,11.249,8.549c10.711,3.96,15.75,9.54,15.75,18.09c0,10.17-7.83,18.81-24.479,18.81
		c-6.93,0-13.77-1.801-17.19-3.69L244.141,68.882z"/>
	<path fill="#FFFFFF" d="M291.48,19.114h13.68v63.897h-13.68V19.114z"/>
	<path fill="#FFFFFF" d="M359.699,60.513c0,16.109-11.43,23.489-23.22,23.489c-12.869,0-22.769-8.46-22.769-22.68
		c0-14.219,9.359-23.309,23.488-23.309C350.699,38.014,359.699,47.283,359.699,60.513z M327.84,60.963c0,7.56,3.15,13.229,9,13.229
		c5.31,0,8.729-5.311,8.729-13.229c0-6.57-2.521-13.229-8.729-13.229C330.27,47.733,327.84,54.482,327.84,60.963z"/>
	<path fill="#FFFFFF" d="M383.459,26.404v12.6h9.811v10.079h-9.811v15.93c0,5.31,1.261,7.739,5.4,7.739
		c1.71,0,3.061-0.18,4.05-0.359l0.09,10.35c-1.8,0.72-5.04,1.17-8.909,1.17c-4.41,0-8.1-1.53-10.26-3.78
		c-2.52-2.61-3.779-6.84-3.779-13.05V49.083H364.2V39.004h5.851v-9.54L383.459,26.404z"/>
	<path fill="#FFFFFF" d="M401.189,19.114h13.68v25.109h0.18c1.439-1.891,3.239-3.33,5.399-4.5c1.979-1.08,4.59-1.71,7.11-1.71
		c8.729,0,15.389,6.029,15.389,19.259v25.739h-13.68V58.803c0-5.76-1.979-9.72-7.109-9.72c-3.6,0-5.85,2.34-6.84,4.77
		c-0.359,0.9-0.449,2.07-0.449,3.061v26.099h-13.68V19.114z"/>
</g>
</svg>
